<svg xmlns="http://www.w3.org/2000/svg" width="20" height="20.09" viewBox="0 0 20 20.09"><title>Asset 19</title><path d="M16.84,12a2.1,2.1,0,0,0-1.52-.7,2.17,2.17,0,0,0-1.54.69l-1.43,1.42L12,13.21c-.16-.08-.32-.16-.45-.24a15.5,15.5,0,0,1-3.7-3.38A9.38,9.38,0,0,1,6.64,7.68c.37-.34.71-.69,1.05-1l.38-.38a2.08,2.08,0,0,0,0-3.12L6.84,1.93,6.42,1.5c-.27-.28-.56-.57-.85-.84A2.13,2.13,0,0,0,4.06,0,2.23,2.23,0,0,0,2.53.66h0L1,2.21a3.28,3.28,0,0,0-1,2.1A8,8,0,0,0,.59,7.65,19.35,19.35,0,0,0,4,13.39a21.2,21.2,0,0,0,7.05,5.52,11,11,0,0,0,4,1.17h.28A3.37,3.37,0,0,0,17.93,19l0,0a8.55,8.55,0,0,1,.79-.81c.19-.19.39-.38.58-.58A2.25,2.25,0,0,0,20,16a2.17,2.17,0,0,0-.69-1.54Zm1.61,4.73h0l-.55.55a12.46,12.46,0,0,0-.87.9,2.15,2.15,0,0,1-1.69.72h-.21a9.54,9.54,0,0,1-3.51-1.05A19.9,19.9,0,0,1,5,12.62a18.14,18.14,0,0,1-3.24-5.4,6.51,6.51,0,0,1-.51-2.81,2.1,2.1,0,0,1,.62-1.34L3.39,1.53a1,1,0,0,1,.68-.31,1,1,0,0,1,.66.31h0c.28.26.54.53.81.81L6,2.79,7.21,4a.86.86,0,0,1,0,1.4l-.39.39c-.38.38-.74.74-1.13,1.09l0,0a.91.91,0,0,0-.23,1V8A10.09,10.09,0,0,0,6.9,10.35h0a16.44,16.44,0,0,0,4,3.63,6.19,6.19,0,0,0,.56.3l.44.24.06,0a.91.91,0,0,0,.44.12,1,1,0,0,0,.69-.31l1.54-1.54a1,1,0,0,1,.68-.34.87.87,0,0,1,.64.33h0l2.48,2.48A.88.88,0,0,1,18.45,16.71Z" style="fill:#675c53"/></svg>