<svg xmlns="http://www.w3.org/2000/svg" width="13.28" height="13.28" viewBox="0 0 13.28 13.28"><title>Asset 6</title><path d="M12.1,4.34a26.69,26.69,0,0,0-3.52-.18,6.34,6.34,0,0,0,.1-1.36c0-1.49-1.08-2.8-2-2.8A1.25,1.25,0,0,0,5.39,1.24a3.32,3.32,0,0,1-1.66,3l-.43.21,0,0a1.31,1.31,0,0,0-.83-.33H1.24A1.25,1.25,0,0,0,0,5.39V12a1.25,1.25,0,0,0,1.24,1.25H2.49a1.24,1.24,0,0,0,1.11-.72h0l.1,0h0L5.42,13a12,12,0,0,0,2.47.29h2.27a1.58,1.58,0,0,0,1.49-.8,4.47,4.47,0,0,0,.18-.45,1.37,1.37,0,0,0,0-.73,1.88,1.88,0,0,0,.68-1.07,1.65,1.65,0,0,0,0-1.13A2,2,0,0,0,13.07,8a1.5,1.5,0,0,0-.16-1,1.5,1.5,0,0,0,.36-.91V6c0-.06,0-.09,0-.21A1.56,1.56,0,0,0,12.1,4.34ZM2.9,12a.41.41,0,0,1-.41.42H1.24A.42.42,0,0,1,.83,12V5.39A.41.41,0,0,1,1.24,5H2.49a.41.41,0,0,1,.41.41Zm9.54-6c0,.21-.1.61-.82.61h-.83a.21.21,0,0,0-.21.21.2.2,0,0,0,.21.2h.8a.64.64,0,0,1,.67.77c-.06.31-.2.89-.9.89h-1a.21.21,0,0,0,0,.42h.82c.7,0,.64.53.54.85s-.22.81-1.1.81H10a.21.21,0,0,0-.21.21.2.2,0,0,0,.21.2h.65a.44.44,0,0,1,.42.59,2.69,2.69,0,0,1-.11.29.75.75,0,0,1-.76.37H7.89a11.08,11.08,0,0,1-2.29-.27c-1.73-.39-1.82-.43-1.93-.46s-.35-.06-.35-.36V5.63a.44.44,0,0,1,.33-.43l.08,0A4.05,4.05,0,0,0,6.22,1.24.43.43,0,0,1,6.64.83c.44,0,1.21.88,1.21,2A5.06,5.06,0,0,1,7.47,5c4.15,0,4.12.06,4.48.15a.64.64,0,0,1,.5.64C12.45,5.91,12.44,5.89,12.44,6Z" style="fill:#50a3de"/></svg>