<svg xmlns="http://www.w3.org/2000/svg" width="30" height="30" viewBox="0 0 30 30"><title>Asset 23</title><rect width="30" height="30" rx="6.43" ry="6.43" style="fill:#f5f2ef"/><path d="M16.77,23.18a17,17,0,0,1-3.41-.39l-2.29-.54h0a1.9,1.9,0,0,1-1.63.93H7.76a1.94,1.94,0,0,1-1.94-1.94v-9a1.93,1.93,0,0,1,1.94-1.93H9.44a1.94,1.94,0,0,1,1.13.38l.44-.22A4.23,4.23,0,0,0,13.13,6.6a2,2,0,0,1,1.94-1.92c1.52,0,3,2,3,4.05a10.4,10.4,0,0,1-.09,1.6l1,0a20.53,20.53,0,0,1,3.54.22,2.35,2.35,0,0,1,1.78,2.17,1.72,1.72,0,0,1,0,.27v.14a2.28,2.28,0,0,1-.44,1.25A2.35,2.35,0,0,1,24,15.75a3,3,0,0,1-.71,1.58,2.51,2.51,0,0,1,0,1.55,2.9,2.9,0,0,1-.89,1.48,2,2,0,0,1-.05.95,3.88,3.88,0,0,1-.25.64,2.38,2.38,0,0,1-2.24,1.23ZM15.07,6.31a.31.31,0,0,0-.31.31,5.85,5.85,0,0,1-3.53,5.54l-.14.05a.36.36,0,0,0-.27.35v7.77c0,.2.27.25.27.25.19.05.41.11,2.62.62a15.29,15.29,0,0,0,3.06.36h3.08c.5,0,.68-.15.8-.37a2.32,2.32,0,0,0,.14-.35.49.49,0,0,0-.06-.36s-.08-.11-.28-.11h-.88a.54.54,0,0,1-.54-.53.53.53,0,0,1,.54-.53h.91c1,0,1.06-.32,1.23-.85.11-.37.12-.61,0-.74s-.24-.16-.49-.16H20.13a.54.54,0,0,1,0-1.07h1.34c.55,0,.85-.31,1-1a.72.72,0,0,0-.14-.55.64.64,0,0,0-.52-.2H20.69a.53.53,0,0,1,0-1.06h1.13c.84,0,.85-.42.86-.58,0,0,0-.24,0-.35a.61.61,0,0,0-.48-.62c-.48-.13-.74-.2-6-.2h-.34L16,11.6a6.42,6.42,0,0,0,.5-2.87C16.46,7.35,15.47,6.31,15.07,6.31ZM7.76,11.93a.31.31,0,0,0-.32.31v9a.32.32,0,0,0,.32.32H9.44a.32.32,0,0,0,.32-.32v-9a.31.31,0,0,0-.32-.31Z" style="fill:#e5772b"/><path d="M15.07,4.93c1.3,0,2.77,1.78,2.77,3.8a8.36,8.36,0,0,1-.14,1.84,35.34,35.34,0,0,1,4.77.25,2.08,2.08,0,0,1,1.6,1.93,1.87,1.87,0,0,1,0,.28v.12a2,2,0,0,1-.49,1.23,2,2,0,0,1,.22,1.33A2.63,2.63,0,0,1,23,17.27a2.19,2.19,0,0,1,0,1.53,2.52,2.52,0,0,1-.92,1.45,1.92,1.92,0,0,1,0,1,3.68,3.68,0,0,1-.24.61,2.12,2.12,0,0,1-2,1.08H16.77a16.34,16.34,0,0,1-3.36-.39L11.13,22h0L11,22h0a1.66,1.66,0,0,1-1.5,1H7.76a1.69,1.69,0,0,1-1.69-1.69v-9a1.69,1.69,0,0,1,1.69-1.68H9.44a1.78,1.78,0,0,1,1.11.43l0,0,0,0h0l.59-.29a4.5,4.5,0,0,0,2.25-4.08,1.7,1.7,0,0,1,1.69-1.68m1.7,16.88h3.08a1,1,0,0,0,1-.5,2.51,2.51,0,0,0,.16-.4.6.6,0,0,0-.58-.79h-.88a.29.29,0,0,1-.29-.28.28.28,0,0,1,.29-.28h.91c1.2,0,1.31-.53,1.49-1.1s.22-1.15-.73-1.15H20.13a.29.29,0,0,1,0-.57h1.34c1,0,1.14-.79,1.21-1.21a.85.85,0,0,0-.9-1H20.69a.28.28,0,0,1-.28-.28.29.29,0,0,1,.28-.28h1.13c1,0,1.1-.55,1.11-.82s0-.16,0-.36a.86.86,0,0,0-.66-.86c-.5-.13-.46-.21-6.09-.21a6.7,6.7,0,0,0,.53-2.95c0-1.48-1.06-2.67-1.65-2.67a.56.56,0,0,0-.56.56,5.54,5.54,0,0,1-3.38,5.31L11,12a.62.62,0,0,0-.45.59v7.77c0,.41.48.49.48.49s.27.09,2.61.63a15.68,15.68,0,0,0,3.11.36m-9,0H9.44a.57.57,0,0,0,.57-.57v-9a.56.56,0,0,0-.57-.56H7.76a.57.57,0,0,0-.57.56v9a.58.58,0,0,0,.57.57M15.07,4.43A2.2,2.2,0,0,0,12.88,6.6a4,4,0,0,1-2,3.64l-.31.16a2.28,2.28,0,0,0-1.15-.34H7.76a2.19,2.19,0,0,0-2.19,2.18v9a2.19,2.19,0,0,0,2.19,2.19H9.44a2.11,2.11,0,0,0,1.74-.9l2.12.5a17.44,17.44,0,0,0,3.47.4h3.08a2.63,2.63,0,0,0,2.45-1.34,4.78,4.78,0,0,0,.28-.7,2.24,2.24,0,0,0,.08-.93A3.25,3.25,0,0,0,23.52,19a2.81,2.81,0,0,0,.09-1.56,3.39,3.39,0,0,0,.68-1.6,2.7,2.7,0,0,0-.14-1.35,2.36,2.36,0,0,0,.4-1.27v-.11a2.46,2.46,0,0,0,0-.31,2.58,2.58,0,0,0-2-2.41,20.21,20.21,0,0,0-3.6-.23l-.72,0a13.37,13.37,0,0,0,.05-1.36c0-2.21-1.59-4.3-3.27-4.3Zm1.7,16.88a15.47,15.47,0,0,1-3-.35c-2.22-.51-2.43-.57-2.56-.61h-.08l-.07,0V12.56a.11.11,0,0,1,.09-.11l.07,0,.09,0A6.08,6.08,0,0,0,15,6.62a.06.06,0,0,1,.06-.06,2.43,2.43,0,0,1,1.15,2.17,6.24,6.24,0,0,1-.5,2.79l-.22.66h.69c5.25,0,5.51.07,5.87.17l.09,0a.36.36,0,0,1,.29.37v.34c0,.13,0,.34-.61.34H20.69a.78.78,0,0,0,0,1.56h1.09a.42.42,0,0,1,.33.11.48.48,0,0,1,.08.35c-.11.66-.37.79-.72.79H20.13a.79.79,0,0,0,0,1.57h1.11c.2,0,.28,0,.29.06s0,.16,0,.44l0,.08c-.15.48-.21.67-1,.67h-.91a.78.78,0,1,0,0,1.56h1a.21.21,0,0,1,0,.14,2.7,2.7,0,0,1-.13.33c0,.07-.12.21-.57.21Zm-9,0a.07.07,0,0,1-.07-.07v-9a.07.07,0,0,1,.07-.06H9.44a.07.07,0,0,1,.07.06v9a.07.07,0,0,1-.07.07Z" style="fill:#f5f2ef"/><path d="M8.6,21.49A1.09,1.09,0,1,1,9.69,20.4,1.09,1.09,0,0,1,8.6,21.49Zm0-1.12a0,0,0,0,0,0,0Z" style="fill:#fff"/><path d="M8.6,19.56a.84.84,0,1,1-.84.84.83.83,0,0,1,.84-.84m0,1.12a.28.28,0,0,0,.28-.28.27.27,0,0,0-.28-.28.28.28,0,0,0-.28.28.29.29,0,0,0,.28.28m0-1.62A1.34,1.34,0,1,0,9.94,20.4,1.34,1.34,0,0,0,8.6,19.06Z" style="fill:#e5772b"/></svg>