<svg xmlns="http://www.w3.org/2000/svg" width="15.5" height="21.73" viewBox="0 0 15.5 21.73"><title>Asset 21</title><path d="M12.18,7.06H10.7V2.43A2.81,2.81,0,0,0,7.94,0H7.56A2.81,2.81,0,0,0,4.81,2.43V7.06H3.32A3.33,3.33,0,0,0,0,10.38v9.69a1.72,1.72,0,0,0,1.94,1.66H13.56a1.72,1.72,0,0,0,1.94-1.66V10.38A3.33,3.33,0,0,0,12.18,7.06ZM5.91,2.53A1.71,1.71,0,0,1,7.64,1.12h.22A1.7,1.7,0,0,1,9.59,2.53V6.64H5.91Zm8.48,17.54c0,.45-.45.55-.83.55H1.94c-.38,0-.83-.1-.83-.55V10.38A2.21,2.21,0,0,1,3.32,8.17h8.86a2.21,2.21,0,0,1,2.21,2.21Z" style="fill:#8b837d"/><path d="M10,18.82H5.56v-3.6A2.7,2.7,0,0,1,6,13.87a2.28,2.28,0,0,1-.39-1.41,2,2,0,0,1,2.21-1.94h.05A2,2,0,0,1,10,12.46a2.28,2.28,0,0,1-.39,1.41A2.7,2.7,0,0,1,10,15.22ZM6.66,17.71H8.92V15.22a1.59,1.59,0,0,0-.39-1l-.39-.39.39-.39a1.09,1.09,0,0,0,.39-1c0-.62-.59-.83-1.1-.83H7.77c-.51,0-1.11.22-1.11.84a1.11,1.11,0,0,0,.39,1l.4.39-.4.39a1.59,1.59,0,0,0-.39,1Z" style="fill:#8b837d"/></svg>