<svg xmlns="http://www.w3.org/2000/svg" width="18.25" height="18.25" viewBox="0 0 18.25 18.25"><title>Asset 12</title><path d="M13.38,7h-.09a24.13,24.13,0,0,0-2.78,1.24.3.3,0,0,0-.14.4.32.32,0,0,0,.28.17.31.31,0,0,0,.13,0,26.44,26.44,0,0,1,2.69-1.2.3.3,0,0,0,.2-.38A.3.3,0,0,0,13.38,7Z" style="fill:#675c53"/><path d="M13.38,3.35h-.09A24.13,24.13,0,0,0,10.51,4.6a.3.3,0,0,0-.14.4.32.32,0,0,0,.28.17.31.31,0,0,0,.13,0,26.44,26.44,0,0,1,2.69-1.2.3.3,0,0,0,.2-.38.3.3,0,0,0-.29-.21Z" style="fill:#675c53"/><path d="M14.9,0l-.1,0A31,31,0,0,0,9.88,2.48a.3.3,0,0,0-.1.42.32.32,0,0,0,.42.1A31.22,31.22,0,0,1,14.6.75V12.56A34.73,34.73,0,0,0,9.43,15V3.35a.33.33,0,0,0-.17-.28,7.14,7.14,0,0,0-2.87-.64,20,20,0,0,0-4.95.62.31.31,0,0,0-.22.3V16.73a.3.3,0,0,0,.3.3H1.6a19.84,19.84,0,0,1,4.79-.6,6.43,6.43,0,0,1,2.43.51v.71H1.52a.91.91,0,0,1-.91-.91V4.87A.31.31,0,0,0,.3,4.56a.31.31,0,0,0-.3.31V16.73a1.52,1.52,0,0,0,1.52,1.52H16.73a1.52,1.52,0,0,0,1.52-1.52V4.87a.31.31,0,1,0-.61,0V16.73a.91.91,0,0,1-.91.91H9.43v-.7a9.09,9.09,0,0,1,2.74-.52,15.29,15.29,0,0,1,4.46.6h.1a.41.41,0,0,0,.18-.05.3.3,0,0,0,.12-.25V3.35a.3.3,0,0,0-.24-.3l-.64-.13h-.06a.3.3,0,0,0-.05.6l.38.07V16.32a17.24,17.24,0,0,0-4.25-.5,9.46,9.46,0,0,0-3,.58,7.11,7.11,0,0,0-2.75-.58,20.36,20.36,0,0,0-4.57.52V3.58A20.09,20.09,0,0,1,6.39,3a6.68,6.68,0,0,1,2.43.5v12a.33.33,0,0,0,.15.27.42.42,0,0,0,.15,0,.3.3,0,0,0,.16-.05A34.74,34.74,0,0,1,15,13.06a.3.3,0,0,0,.21-.29V.3a.31.31,0,0,0-.13-.25.37.37,0,0,0-.18,0Z" style="fill:#675c53"/><path d="M13.38,5.17h-.09a26.07,26.07,0,0,0-2.78,1.24.31.31,0,0,0-.14.41.34.34,0,0,0,.28.17.22.22,0,0,0,.13,0,24.85,24.85,0,0,1,2.69-1.19.32.32,0,0,0,.2-.39.3.3,0,0,0-.29-.21Z" style="fill:#675c53"/><path d="M13.38,8.82h-.09a26.07,26.07,0,0,0-2.78,1.24.31.31,0,0,0-.14.41.34.34,0,0,0,.28.17.22.22,0,0,0,.13,0,24.85,24.85,0,0,1,2.69-1.19.32.32,0,0,0,.2-.39.3.3,0,0,0-.29-.21Z" style="fill:#675c53"/><path d="M3.65,7.24h0M5.78,5.48a10.6,10.6,0,0,0-2.51.31.3.3,0,0,0-.22.37.31.31,0,0,0,.3.23h.07a10.11,10.11,0,0,1,2.37-.29,6.41,6.41,0,0,1,1.44.15H7.3A.31.31,0,0,0,7.6,6a.32.32,0,0,0-.23-.37,7.21,7.21,0,0,0-1.59-.16Z" style="fill:#675c53"/><path d="M5.78,7.3a11.23,11.23,0,0,0-2.51.31.3.3,0,0,0,.08.6h.07a10.77,10.77,0,0,1,2.37-.29,6.41,6.41,0,0,1,1.44.15H7.3a.31.31,0,0,0,.3-.24.31.31,0,0,0-.23-.36A7.23,7.23,0,0,0,5.78,7.3Z" style="fill:#675c53"/><path d="M13.38,10.65h-.09a24.13,24.13,0,0,0-2.78,1.24.3.3,0,0,0-.14.4.32.32,0,0,0,.28.17.31.31,0,0,0,.13,0,26.44,26.44,0,0,1,2.69-1.2.3.3,0,0,0,.2-.38.3.3,0,0,0-.29-.21Z" style="fill:#675c53"/><path d="M5.78,9.13a10.6,10.6,0,0,0-2.51.31.3.3,0,0,0-.22.37.31.31,0,0,0,.3.23h.07a10.11,10.11,0,0,1,2.37-.29,6.41,6.41,0,0,1,1.44.15H7.3a.31.31,0,0,0,.3-.23.32.32,0,0,0-.23-.37,7.21,7.21,0,0,0-1.59-.16Z" style="fill:#675c53"/><path d="M5.78,12.78a10.6,10.6,0,0,0-2.51.31.3.3,0,0,0-.22.37.31.31,0,0,0,.3.23h.07a10.11,10.11,0,0,1,2.37-.29,6.41,6.41,0,0,1,1.44.15H7.3a.31.31,0,0,0,.3-.23.32.32,0,0,0-.23-.37,7.21,7.21,0,0,0-1.59-.16Z" style="fill:#675c53"/><path d="M5.78,11a11.23,11.23,0,0,0-2.51.31.3.3,0,0,0,.08.6h.07a10.77,10.77,0,0,1,2.37-.29,6.41,6.41,0,0,1,1.44.15H7.3a.31.31,0,0,0,.3-.24.31.31,0,0,0-.23-.36A7.23,7.23,0,0,0,5.78,11Z" style="fill:#675c53"/></svg>