<svg xmlns="http://www.w3.org/2000/svg" width="15.5" height="18.27" viewBox="0 0 15.5 18.27"><title>Asset 2</title><path d="M13.16,10.82a15.91,15.91,0,0,0-1.89-1.6A6,6,0,0,0,12.52,5.5c0-3-2.1-5.5-4.7-5.5S3.11,2.46,3.11,5.5A6,6,0,0,0,4.32,9.16a14.75,14.75,0,0,0-2,1.66A6.9,6.9,0,0,0,0,15.55a2.85,2.85,0,0,0,1.48,2.58l.28.14h12l.28-.14a2.85,2.85,0,0,0,1.48-2.58A6.9,6.9,0,0,0,13.16,10.82ZM7.82,1.32c1.86,0,3.38,1.88,3.38,4.18a4.59,4.59,0,0,1-1.1,3.06l-.66.53a4.14,4.14,0,0,1-.59.38,2.74,2.74,0,0,1-1,.2C6,9.67,4.44,7.8,4.44,5.5S6,1.32,7.82,1.32ZM13.43,17H2.07a1.56,1.56,0,0,1-.75-1.4c0-2.9,3.93-5.42,3.93-5.42a4.37,4.37,0,0,0,2.5,1h0a4,4,0,0,0,1.73-.5,4.51,4.51,0,0,0,.82-.48c.44.29,3.88,2.68,3.88,5.39A1.56,1.56,0,0,1,13.43,17Z" style="fill:#675c53"/></svg>