<?xml version="1.0" encoding="utf-8"?>
<!-- Generator: Adobe Illustrator 22.1.0, SVG Export Plug-In . SVG Version: 6.00 Build 0)  -->
<svg version="1.1" id="Layer_1" xmlns="http://www.w3.org/2000/svg" xmlns:xlink="http://www.w3.org/1999/xlink" x="0px" y="0px"
	 viewBox="0 0 8 4.8" style="enable-background:new 0 0 8 4.8;" xml:space="preserve">
<style type="text/css">
	.st0{fill:#E5772B;}
</style>
<title>Asset 1</title>
<path class="st0" d="M4.4,4.7c0,0,0.1-0.1,0.1-0.1l3.2-3.2c0.3-0.3,0.3-0.8,0-1.1c0,0,0,0,0,0C7.5-0.1,7-0.1,6.7,0.2c0,0,0,0,0,0
	L4,2.9L1.3,0.2C1-0.1,0.5-0.1,0.2,0.2c0,0,0,0,0,0c-0.3,0.3-0.3,0.8,0,1.1c0,0,0,0,0,0l3.2,3.2C3.7,4.8,4.1,4.9,4.4,4.7z"/>
</svg>
