<svg xmlns="http://www.w3.org/2000/svg" width="10.16" height="13.23" viewBox="0 0 10.16 13.23"><title>Asset 9</title><path d="M3.29,4.82a2.08,2.08,0,0,1-.1-.66,1.84,1.84,0,0,1-.71.55,2.11,2.11,0,0,1-.9.19,1.55,1.55,0,0,1-1.1-.38,1.23,1.23,0,0,1-.42-1A1.27,1.27,0,0,1,.63,2.47a2.74,2.74,0,0,1,1.6-.4h1V1.53a1,1,0,0,0-.31-.8A1.31,1.31,0,0,0,2,.44a1.41,1.41,0,0,0-.91.28.83.83,0,0,0-.36.67H.17a1.24,1.24,0,0,1,.52-1A2.05,2.05,0,0,1,2,0,1.81,1.81,0,0,1,3.23.4,1.4,1.4,0,0,1,3.7,1.5V3.74a2.64,2.64,0,0,0,.15,1v.06ZM1.64,4.44a1.74,1.74,0,0,0,.94-.25,1.46,1.46,0,0,0,.6-.68v-1H2.25A2.38,2.38,0,0,0,1,2.76.88.88,0,0,0,.88,4.18,1.11,1.11,0,0,0,1.64,4.44Z" style="fill:#685c53"/><path d="M.65,12.78H3.72v.45H0v-.39L2.87,9H.09V8.5H3.53v.39Z" style="fill:#685c53"/><path d="M10.05,6.13a.4.4,0,0,1-.57,0l-.85-.85v4.89a.52.52,0,0,1-1,0V5.28l-.85.85a.39.39,0,0,1-.56,0,.4.4,0,0,1,0-.57L7.83,3.92a.41.41,0,0,1,.51-.06l.06.06,1.65,1.64A.42.42,0,0,1,10.05,6.13Z" style="fill:#685c53"/></svg>