<svg xmlns="http://www.w3.org/2000/svg" width="30" height="30" viewBox="0 0 30 30"><title>Asset 20</title><rect width="30" height="30" rx="6.43" ry="6.43" style="fill:#e5772b"/><path d="M16.25,13.53a.29.29,0,0,0,.27.17.25.25,0,0,0,.14,0,24.85,24.85,0,0,1,2.69-1.19.32.32,0,0,0,.2-.39.3.3,0,0,0-.38-.2,27.54,27.54,0,0,0-2.79,1.24A.3.3,0,0,0,16.25,13.53Z" style="fill:#fff"/><path d="M16.52,10.05a.25.25,0,0,0,.14,0,24.85,24.85,0,0,1,2.69-1.19.32.32,0,0,0,.2-.39.29.29,0,0,0-.38-.19,25.91,25.91,0,0,0-2.79,1.23.3.3,0,0,0-.13.41A.29.29,0,0,0,16.52,10.05Z" style="fill:#fff"/><path d="M23.82,9.44a.29.29,0,0,0-.3.3V21.6a.92.92,0,0,1-.92.92H15.3v-.7A8.85,8.85,0,0,1,18,21.3a16.08,16.08,0,0,1,4.47.59.29.29,0,0,0,.27,0,.31.31,0,0,0,.13-.25V8.22a.31.31,0,0,0-.24-.3L22,7.8a.3.3,0,0,0-.35.24.3.3,0,0,0,.24.35l.39.08V21.2A17.2,17.2,0,0,0,18,20.69a9.82,9.82,0,0,0-3,.58,7.31,7.31,0,0,0-2.75-.58,20.86,20.86,0,0,0-4.56.52V8.46a20,20,0,0,1,4.56-.54,6.59,6.59,0,0,1,2.44.5v12a.28.28,0,0,0,.15.26.31.31,0,0,0,.31,0,34.29,34.29,0,0,1,5.72-2.71.3.3,0,0,0,.2-.29V5.18A.31.31,0,0,0,21,4.93a.31.31,0,0,0-.28,0,34.23,34.23,0,0,0-4.92,2.46.32.32,0,0,0-.1.42.3.3,0,0,0,.42.1,34,34,0,0,1,4.4-2.25V17.43a34.08,34.08,0,0,0-5.17,2.43V8.22A.3.3,0,0,0,15.14,8a7,7,0,0,0-2.88-.64,19.5,19.5,0,0,0-4.95.62.31.31,0,0,0-.22.29V21.6a.33.33,0,0,0,.12.25.33.33,0,0,0,.19.06h.08a19.13,19.13,0,0,1,4.78-.6,6.81,6.81,0,0,1,2.44.5v.72H7.4a.92.92,0,0,1-.92-.92V9.74a.3.3,0,0,0-.6,0V21.6A1.52,1.52,0,0,0,7.4,23.12H22.6a1.52,1.52,0,0,0,1.52-1.52V9.74A.29.29,0,0,0,23.82,9.44Z" style="fill:#fff"/><path d="M16.25,11.7a.29.29,0,0,0,.27.17.35.35,0,0,0,.14,0,26.44,26.44,0,0,1,2.69-1.2.3.3,0,1,0-.18-.58,25.4,25.4,0,0,0-2.79,1.24A.29.29,0,0,0,16.25,11.7Z" style="fill:#fff"/><path d="M16.25,15.35a.29.29,0,0,0,.27.17.35.35,0,0,0,.14,0,26.44,26.44,0,0,1,2.69-1.2.3.3,0,1,0-.18-.58A25.4,25.4,0,0,0,16.38,15,.29.29,0,0,0,16.25,15.35Z" style="fill:#fff"/><path d="M13.24,10.52a9.78,9.78,0,0,0-4.1.14.31.31,0,0,0-.21.38.3.3,0,0,0,.29.22H9.3a9.42,9.42,0,0,1,3.81-.14.3.3,0,0,0,.36-.22A.3.3,0,0,0,13.24,10.52Z" style="fill:#fff"/><path d="M13.24,12.34a9.7,9.7,0,0,0-4.1.15.29.29,0,0,0-.21.37.3.3,0,0,0,.29.23H9.3a9,9,0,0,1,3.81-.14.31.31,0,0,0,.13-.6Z" style="fill:#fff"/><path d="M16.25,17.18a.31.31,0,0,0,.27.17.25.25,0,0,0,.14,0,24.85,24.85,0,0,1,2.69-1.19.32.32,0,0,0,.2-.39.3.3,0,0,0-.38-.2,27.54,27.54,0,0,0-2.79,1.24A.3.3,0,0,0,16.25,17.18Z" style="fill:#fff"/><path d="M13.24,14.17a9.78,9.78,0,0,0-4.1.14.31.31,0,0,0-.21.38.3.3,0,0,0,.29.22H9.3a9.42,9.42,0,0,1,3.81-.14.3.3,0,0,0,.36-.22A.3.3,0,0,0,13.24,14.17Z" style="fill:#fff"/><path d="M13.24,17.82a9.78,9.78,0,0,0-4.1.14.31.31,0,0,0-.21.38.3.3,0,0,0,.29.22H9.3a9.42,9.42,0,0,1,3.81-.14.3.3,0,1,0,.13-.59Z" style="fill:#fff"/><path d="M13.24,16a9.7,9.7,0,0,0-4.1.15.29.29,0,0,0-.21.37.3.3,0,0,0,.29.23H9.3a9,9,0,0,1,3.81-.14.31.31,0,0,0,.36-.23A.31.31,0,0,0,13.24,16Z" style="fill:#fff"/><path d="M24.06,10.94a1.16,1.16,0,0,1-1.15-1.15V7.34H20.46a1.15,1.15,0,1,1,0-2.3h2.45V2.59a1.15,1.15,0,1,1,2.3,0V5h2.45a1.15,1.15,0,0,1,0,2.3H25.21V9.79A1.15,1.15,0,0,1,24.06,10.94Z" style="fill:#fff"/><path d="M24.06,1.69a.9.9,0,0,1,.9.9v2.7h2.7a.9.9,0,0,1,0,1.8H25v2.7a.9.9,0,0,1-1.8,0V7.09h-2.7a.9.9,0,1,1,0-1.8h2.7V2.59a.9.9,0,0,1,.9-.9m0-.5a1.4,1.4,0,0,0-1.4,1.4v2.2h-2.2a1.4,1.4,0,1,0,0,2.8h2.2v2.2a1.4,1.4,0,0,0,2.8,0V7.59h2.2a1.4,1.4,0,0,0,0-2.8h-2.2V2.59a1.4,1.4,0,0,0-1.4-1.4Z" style="fill:#e5772b"/></svg>