<svg xmlns="http://www.w3.org/2000/svg" width="20.34" height="12.97" viewBox="0 0 20.34 12.97"><title>Asset 7</title><path d="M20.22,6.09C20,5.84,15.7,0,10.17,0S.31,5.84.13,6.09a.68.68,0,0,0,0,.79c.18.25,4.51,6.09,10,6.09s9.86-5.84,10-6.09A.68.68,0,0,0,20.22,6.09Zm-10,5.54c-4.07,0-7.6-3.88-8.64-5.15,1-1.27,4.56-5.14,8.64-5.14s7.6,3.88,8.65,5.14C17.78,7.75,14.26,11.63,10.17,11.63Z" style="fill:#50a3de"/><path d="M10.17,2.46a4,4,0,1,0,4,4A4,4,0,0,0,10.17,2.46Zm0,6.71a2.69,2.69,0,1,1,2.69-2.69A2.69,2.69,0,0,1,10.17,9.17Z" style="fill:#50a3de"/></svg>