<svg xmlns="http://www.w3.org/2000/svg" xmlns:xlink="http://www.w3.org/1999/xlink" width="138.86" height="30" viewBox="0 0 138.86 30"><defs><mask id="a" x="0" y="0" width="28.99" height="16.29" maskUnits="userSpaceOnUse"><polygon points="0 16.29 0 0 14.49 0 28.99 0 28.99 16.29 0 16.29" style="fill:#fff"/></mask></defs><title>Asset 18</title><polygon points="59.66 7.5 57.49 17.17 55.1 7.5 49.34 7.5 54.01 23.68 60.42 23.68 65.53 7.5 59.66 7.5" style="fill:#e6772b"/><path d="M41,19.22c-1.53,0-2.77-1.61-2.77-3.61S39.49,12,41,12s2.77,1.62,2.77,3.61S42.55,19.22,41,19.22m7.87-3.66a8,8,0,1,0-16,0l9.23,7.9a8,8,0,0,0,6.73-7.9" style="fill:#e6772b"/><path d="M20.23,7.56H16.86V17.83a2.33,2.33,0,1,1-4.66,0V7.56H8.83V17.83h0a5.7,5.7,0,1,0,11.39,0h0Z" style="fill:#e6772b"/><g style="mask:url(#a)"><path d="M2.72,15a11.91,11.91,0,0,1,11.77-12,11.66,11.66,0,0,1,9.36,4.74L29,12.06A14.77,14.77,0,0,0,14.61,0,14.8,14.8,0,0,0,0,13.89l2.8,2.4A11.73,11.73,0,0,1,2.72,15" style="fill:#e6772b"/></g><path d="M26.26,15A11.91,11.91,0,0,1,14.49,27a11.67,11.67,0,0,1-9.66-5.17L.23,17.89A14.75,14.75,0,0,0,14.61,30,14.8,14.8,0,0,0,29.23,16.07l-3.07-2.63a12.79,12.79,0,0,1,.1,1.52" style="fill:#e6772b"/><path d="M72.59,24a5.89,5.89,0,0,1-4.27-1.57,5.44,5.44,0,0,1-1.63-4.1V18a7.14,7.14,0,0,1,.65-3.11,4.85,4.85,0,0,1,1.9-2.08,5.74,5.74,0,0,1,3-.73A5,5,0,0,1,76,13.62a5.87,5.87,0,0,1,1.4,4.17v1.39h-7.1a2.63,2.63,0,0,0,.84,1.52,2.52,2.52,0,0,0,1.67.55,3.22,3.22,0,0,0,2.65-1.19L77.11,22a4.49,4.49,0,0,1-1.89,1.46A6.29,6.29,0,0,1,72.59,24Zm-.4-9.13c-1,0-1.67.69-1.87,2.08h3.6v-.28a1.58,1.58,0,0,0-1.73-1.8Z" style="fill:#675c53"/><path d="M85.78,15.56l-1.17-.09a2.12,2.12,0,0,0-2.16,1.06v7.26H78.88V12.33h3.35l.11,1.47a2.77,2.77,0,0,1,2.51-1.68,3.7,3.7,0,0,1,1,.12Z" style="fill:#675c53"/><path d="M90.56,13.56a3.92,3.92,0,0,1,5.78-.32,5,5,0,0,1,1,3.31v7.24H93.75V16.64a2,2,0,0,0-.37-1.34,1.59,1.59,0,0,0-1.26-.43,1.7,1.7,0,0,0-1.56.7v8.22H87V7.52h3.57Z" style="fill:#675c53"/><path d="M105.77,23.79a4,4,0,0,1-.34-1A3.3,3.3,0,0,1,102.68,24a4.11,4.11,0,0,1-2.76-1,3.12,3.12,0,0,1-1.13-2.46,3.22,3.22,0,0,1,1.38-2.82,7,7,0,0,1,4-.95h1.1v-.61c0-1.06-.45-1.58-1.36-1.58a1.12,1.12,0,0,0-1.28,1.25H99.07a3.2,3.2,0,0,1,1.41-2.7,5.94,5.94,0,0,1,3.61-1,5.17,5.17,0,0,1,3.46,1.07,3.7,3.7,0,0,1,1.3,2.93v5.07a5.28,5.28,0,0,0,.49,2.42v.18Zm-2.24-2.33a2,2,0,0,0,1.11-.29,1.82,1.82,0,0,0,.63-.64V18.69h-1q-1.86,0-1.86,1.68a1,1,0,0,0,.33.79A1.19,1.19,0,0,0,103.53,21.46Z" style="fill:#675c53"/><path d="M114.59,23.79H111V7.52h3.58Z" style="fill:#675c53"/><path d="M122.33,24a5.85,5.85,0,0,1-4.26-1.57,5.45,5.45,0,0,1-1.64-4.1V18a7,7,0,0,1,.66-3.11,4.73,4.73,0,0,1,1.9-2.08,5.73,5.73,0,0,1,3-.73,5,5,0,0,1,3.81,1.5,5.83,5.83,0,0,1,1.4,4.17v1.39h-7.09a2.56,2.56,0,0,0,.83,1.52,2.53,2.53,0,0,0,1.68.55,3.19,3.19,0,0,0,2.64-1.19L126.85,22A4.49,4.49,0,0,1,125,23.45,6.26,6.26,0,0,1,122.33,24Zm-.4-9.13c-1,0-1.67.69-1.86,2.08h3.6v-.28a1.77,1.77,0,0,0-.44-1.33A1.72,1.72,0,0,0,121.93,14.87Z" style="fill:#675c53"/><path d="M131.88,12.33l.11,1.34a3.9,3.9,0,0,1,3.27-1.55,3.25,3.25,0,0,1,2.68,1.07,5.13,5.13,0,0,1,.92,3.22v7.38h-3.59V16.55a2,2,0,0,0-.34-1.27,1.65,1.65,0,0,0-1.28-.41,1.71,1.71,0,0,0-1.55.83v8.09h-3.57V12.33Z" style="fill:#675c53"/></svg>